<?xml version="1.0" encoding="UTF-8"?>
<svg id="Layer_2" data-name="Layer 2" xmlns="http://www.w3.org/2000/svg" viewBox="0 0 500 500">
  <defs>
    <style>
      .cls-1 {
        fill: none;
      }
    </style>
  </defs>
  <g id="Layer_1-2" data-name="Layer 1">
    <g>
      <rect class="cls-1" width="500" height="500"/>
      <g>
        <path d="M248.44.05c13.37-.75,26.19,7.76,30.76,20.3,3.59,9.85,1.18,20.91,2.09,31.2,60.7,12.53,109.88,59.74,121.83,121.02,2.92,14.97,2.81,29.48,3.38,44.6,1.7,45.03,9.96,86.79,39.82,121.76,11.43,13.39,26.05,22.18,21.71,42.62-2.97,13.97-15.11,24.14-29.37,24.81H60.97c-13.58-.68-25.44-10.33-28.71-23.51-5.51-22.23,11.57-32.01,23.66-46.85,27.8-34.11,35.98-75.28,37.53-118.49.4-11.16,0-22.45,1.36-33.57,8.08-66.53,58.79-118.9,123.85-132.38.99-9.83-1.46-20.88,1.68-30.31C224.36,9.18,235.8.76,248.44.05Z"/>
        <path d="M312.48,437.67c-.38,39.93-36.74,69.3-76.06,60.88-28.3-6.06-48.95-31.9-48.96-60.88h125.01Z"/>
      </g>
    </g>
  </g>
</svg>