<?xml version="1.0" encoding="UTF-8"?>
<svg id="Layer_2" data-name="Layer 2" xmlns="http://www.w3.org/2000/svg" viewBox="0 0 499.92 500">
  <g id="Layer_1-2" data-name="Layer 1">
    <g>
      <path d="M343.26,185.45c4.99,43,4.82,86.58,0,129.59h-186.54c-4.85-42.99-5.17-86.62,0-129.59h186.54Z"/>
      <path d="M162.16,153.96c-1.24-.9-1.31-1.07-1.32-2.48-.02-2.97,1.63-11.21,2.26-14.76C169.97,97.99,197.97,5.49,244.66.27c54.84-6.13,82.7,92.24,90.95,132.87.93,4.59,3.49,14.38,3.54,18.32.02,1.44-.14,1.59-1.34,2.49h-175.64Z"/>
      <path d="M339.62,346.53c-7.05,38.44-16.55,79.11-36.58,113.01-30.85,52.22-72.2,54.82-104.91,2.42-21.11-33.81-30.34-76.67-37.79-115.43h179.28Z"/>
      <path d="M124.01,185.45c-3.23,43.16-3.23,86.44,0,129.59H9.54c-2.79-4.86-3.92-12.12-5.1-17.92-4.86-23.94-5.65-54.1-2.76-78.35,1.28-10.76,4.05-23.43,7.85-33.33h114.47Z"/>
      <path d="M375.96,315.04c3.27-43.13,3.38-86.46,0-129.59h114.47c3.8,9.89,6.57,22.57,7.85,33.33,2.68,22.4,2.01,48.8-1.57,71.06-1.31,8.12-2.93,17.97-6.28,25.21h-114.47Z"/>
      <path d="M480.13,153.96h-107.2c-4.57-9.38-4.91-21.26-7.23-31.53-6.02-26.69-14.13-52.86-25.05-77.9l-18.59-33.49c62.64,18.2,116.71,62.75,147.8,119.89,3.85,7.07,8.35,15.43,10.27,23.04Z"/>
      <path d="M19.83,153.96c-1.22-1.18,9.79-22.41,11.49-25.46C62.51,72.38,116.11,29.05,177.9,11.03l-18.59,33.49c-15.2,33.78-24.43,69.86-30.46,106.41l-1.81,3.03H19.83Z"/>
      <path d="M480.13,346.53c2.73,2.64-22.09,42.57-25.66,47.62-32.19,45.4-79.12,79-132.4,95.31l18.42-33.67c15.28-34.66,25.69-71.6,30.63-109.26h109.02Z"/>
      <path d="M128.85,346.53c5.47,38.57,15.92,76.33,31.64,111.88l17.41,31.04c-70.35-21.32-130.87-74.38-158.07-142.93h109.02Z"/>
    </g>
  </g>
</svg>