<?xml version="1.0" encoding="UTF-8"?>
<svg id="Layer_2" data-name="Layer 2" xmlns="http://www.w3.org/2000/svg" viewBox="0 0 55.49 80">
  <defs>
    <style>
      .cls-1 {
        fill: #fea916;
      }

      .cls-1, .cls-2, .cls-3, .cls-4, .cls-5, .cls-6 {
        stroke-width: 0px;
      }

      .cls-2 {
        fill: #434c54;
      }

      .cls-3 {
        fill: #fe904d;
      }

      .cls-4 {
        fill: #fefefe;
      }

      .cls-5 {
        fill: #00c294;
      }

      .cls-6 {
        fill: #76fed9;
      }
    </style>
  </defs>
  <g id="Layer_1-2" data-name="Layer 1">
    <g>
      <path class="cls-2" d="M1.17,61.26C.31,61.09,0,60.56,0,59.69.01,41.3,0,22.9.01,4.5c0-2.06.99-3.49,2.91-4.27.13-.05.32-.03.37-.23h51.41c.62.37.8.92.79,1.64-.03,2.67-.03,5.35,0,8.03,0,.82-.29,1.34-1.11,1.53-.96-.23-1.22-.52-1.24-1.38,0-.23-.02-.47,0-.7.04-.4-.11-.55-.52-.53-.98.03-1.96.03-2.93.04-.39,0-.79.02-1.17-.04-.79-.11-1.03.16-1.03.99.03,18.98.02,37.96.02,56.94q0,2.17,2.17,2.05c.83,0,1.67-.04,2.5.04.8.08.98-.19.97-.97-.02-17.41-.02-34.82-.02-52.23,0-1.13.18-1.36,1.23-1.66.85.21,1.12.76,1.12,1.61-.01,17.99-.01,35.97-.01,53.96,0,1.25-.36,1.61-1.63,1.61-9.92,0-19.84,0-29.75-.01-.63,0-.83.13-.82.8.05,2.06,0,4.11.02,6.17,0,.81-.19,1.51-.94,1.92-.75.41-1.4.12-2.01-.35-.39-.3-.83-.54-1.2-.87-.53-.47-.98-.54-1.53-.02-.39.37-.89.64-1.32.96-.58.43-1.2.65-1.89.29-.69-.36-.96-.98-.96-1.74,0-2.11-.04-4.22.02-6.32.02-.73-.21-.84-.87-.83-2.68.04-5.36.02-8.04.01-2.74,0-4.54-1.82-4.55-4.55,0-.34.02-.68,0-1.01-.06-.86.3-1.39,1.16-1.57,1,.3,1.19.55,1.19,1.61,0,.26,0,.52,0,.78,0,1.69.72,2.4,2.43,2.4,6.64,0,13.27,0,19.91,0,5.02,0,10.05,0,15.07,0,.39,0,.74.08.74-.56-.03-5.75-.03-11.5-.04-17.25,0-.78,0-1.57,0-2.35v-2.49c0-.78,0-1.57,0-2.35,0-.78,0-1.57,0-2.35,0-.83,0-1.65,0-2.48v-5.15c0-4.69,0-9.37,0-14.06,0-3.35-.01-6.71.05-10.06.01-.79-.23-.92-.95-.91-8.79.03-17.58.02-26.36.02-1.08,0-1.34-.18-1.64-1.16.26-.95.55-1.18,1.53-1.18.73,0,1.46,0,2.19,0,8.15,0,16.3,0,24.45.01.59,0,.82-.11.78-.75-.06-.88-.04-1.77,0-2.65.01-.42-.12-.53-.53-.52-.86.03-1.72,0-2.58,0-10.94,0-21.87,0-32.81,0-1.34,0-2.24.82-2.22,1.98.02,1.14.9,1.91,2.2,1.92.91,0,1.82,0,2.73,0,1.07,0,1.29.17,1.63,1.18-.18.7-.55,1.19-1.34,1.16-1.73-.08-3.49.26-5.23-.41,0,.37,0,.68,0,.99,0,16.79,0,33.59,0,50.38,0,1.15-.18,1.4-1.18,1.7ZM42.82,38.6c0,9.53,0,19.05,0,28.58,0,1.41,0,1.36,1.38,1.43.78.04.99-.18.99-.98-.03-19.18-.02-38.37-.02-57.55,0-1.49,0-1.45-1.45-1.5-.71-.03-.91.17-.91.9.03,9.71.02,19.42.02,29.13ZM20.8,76.99c.04-.07.09-.14.13-.21,0-1.81,0-3.62,0-5.43,0-.38-.2-.41-.49-.41-.81,0-1.61-.02-2.42,0-.72.02-1.66-.32-2.09.14-.42.45-.11,1.39-.12,2.11-.02,1.2,0,2.41,0,3.93,1.74-1.96,3.37-2.02,4.99-.14ZM50.33,2.35s0,0,0,0c-.78,0-1.56.02-2.34,0-.38-.01-.49.11-.48.48.02.99.02,1.98,0,2.96,0,.39.14.48.5.47,1.53-.02,3.07-.02,4.6,0,.4,0,.55-.09.53-.52-.03-.96-.03-1.92,0-2.89.01-.44-.17-.51-.55-.5-.75.02-1.51,0-2.26,0ZM42.84,4.29c0,.49.02.99,0,1.48-.03.55.37.54.67.45.55-.17,1.44.53,1.61-.41.18-.98.03-2.01.04-3.02,0-.28-.1-.39-.4-.43-1.8-.24-1.92-.14-1.92,1.63,0,.1,0,.21,0,.31Z"/>
      <path class="cls-1" d="M1.17,61.26c1-.3,1.18-.55,1.18-1.7,0-16.79,0-33.59,0-50.38,0-.31,0-.62,0-.99,1.74.68,3.5.34,5.23.41.8.03,1.17-.46,1.34-1.16.87,0,1.75,0,2.62,0,.3.98.55,1.16,1.64,1.16,8.79,0,17.58,0,26.36-.02.72,0,.97.13.95.91-.06,3.35-.04,6.71-.05,10.06-8.67,0-17.34.01-26.01-.02-.79,0-.93.24-.92.96.03,4.06.04,8.12,0,12.18,0,.73.15.96.92.96,8.67-.03,17.34-.02,26.01-.02,0,1.72,0,3.43,0,5.15-8.35,0-16.7,0-25.06,0-.52,0-1.03.05-1.55.13-.58.09-.88.47-.99.96-.12.55.24.94.7,1.19.34.19.74.2,1.14.2,8.59,0,17.17,0,25.76,0,0,.78,0,1.57,0,2.35-8.7,0-17.39,0-26.09,0-1,0-1.55.46-1.53,1.26.02.67.6,1.08,1.53,1.09.31,0,.62,0,.94,0,8.38,0,16.77,0,25.15,0,0,.83,0,1.66,0,2.49-4.55,0-9.11,0-13.66,0-4.24,0-8.48,0-12.72,0-.67,0-1.06.35-1.19.91-.14.59.19,1.03.74,1.31.35.17.71.13,1.07.13,8.59,0,17.17,0,25.76,0,0,5.75,0,11.5.04,17.25,0,.64-.34.56-.74.56-5.02,0-10.05,0-15.07,0-6.64,0-13.27,0-19.91,0-1.71,0-2.42-.71-2.43-2.4,0-.26,0-.52,0-.78,0-1.06-.19-1.32-1.19-1.61,0-.85,0-1.69.01-2.54Z"/>
      <path class="cls-3" d="M49.68,8.62c.98,0,1.96,0,2.93-.04.41-.01.56.14.52.53-.02.23,0,.46,0,.7.02.86.28,1.14,1.24,1.38,0,.85,0,1.7-.01,2.56-1.05.3-1.23.53-1.23,1.66,0,17.41,0,34.82.02,52.23,0,.78-.18,1.05-.97.97-.83-.08-1.66-.03-2.49-.04,0-19.98,0-39.96,0-59.94Z"/>
      <path class="cls-6" d="M40.45,33.61c-8.67,0-17.34-.01-26.01.02-.78,0-.93-.23-.92-.96.04-4.06.04-8.12,0-12.18,0-.72.14-.97.92-.96,8.67.03,17.34.02,26.01.02,0,4.69,0,9.37,0,14.06Z"/>
      <path class="cls-4" d="M11.55,7.43c-.87,0-1.75,0-2.62,0-.34-1.02-.56-1.18-1.63-1.18-.91,0-1.82,0-2.73,0-1.3,0-2.18-.78-2.2-1.92-.02-1.17.88-1.98,2.22-1.98,10.94,0,21.87,0,32.81,0,.86,0,1.72.02,2.58,0,.41-.01.54.1.53.52-.03.88-.06,1.77,0,2.65.04.64-.19.75-.78.75-8.15-.02-16.3-.01-24.45-.01-.73,0-1.46,0-2.19,0-.99,0-1.27.23-1.53,1.18Z"/>
      <path class="cls-5" d="M42.82,38.6c0-9.71,0-19.42-.02-29.13,0-.73.2-.92.91-.9,1.45.05,1.45.01,1.45,1.5,0,19.18,0,38.37.02,57.55,0,.8-.2,1.01-.99.98-1.37-.07-1.38-.02-1.38-1.43,0-9.53,0-19.05,0-28.58Z"/>
      <path class="cls-1" d="M49.68,8.62c0,19.98,0,39.96,0,59.94q-2.17.12-2.17-2.05c0-18.98,0-37.96-.02-56.94,0-.83.23-1.1,1.03-.99.38.05.78.03,1.17.04Z"/>
      <path class="cls-3" d="M40.45,41.24c-8.59,0-17.17,0-25.76,0-.4,0-.79-.02-1.14-.2-.45-.25-.81-.64-.7-1.19.11-.49.41-.87.99-.96.52-.08,1.02-.13,1.55-.13,8.35,0,16.7,0,25.05,0,0,.83,0,1.65,0,2.48Z"/>
      <path class="cls-3" d="M40.45,45.94c-8.38,0-16.77,0-25.15,0-.31,0-.62,0-.94,0-.93,0-1.51-.42-1.53-1.09-.02-.8.53-1.26,1.53-1.26,8.7,0,17.39,0,26.09,0,0,.78,0,1.57,0,2.35Z"/>
      <path class="cls-3" d="M40.45,50.77c-8.59,0-17.17,0-25.76,0-.36,0-.72.04-1.07-.13-.55-.27-.88-.71-.74-1.31.13-.56.51-.91,1.19-.91,4.24.02,8.48,0,12.72,0,4.55,0,9.11,0,13.66,0,0,.78,0,1.57,0,2.35Z"/>
      <path class="cls-6" d="M20.8,76.99c-1.62-1.88-3.25-1.82-4.99.14,0-1.52-.01-2.73,0-3.93.01-.72-.3-1.65.12-2.11.43-.46,1.38-.12,2.09-.14.8-.03,1.61,0,2.42,0,.29,0,.49.03.49.41-.01,1.81,0,3.62,0,5.43-.04.07-.09.14-.13.21Z"/>
      <path class="cls-4" d="M50.33,2.35c.75,0,1.51.02,2.26,0,.38-.01.56.06.55.5-.03.96-.03,1.92,0,2.89.01.43-.14.52-.53.52-1.53-.02-3.07-.01-4.6,0-.36,0-.51-.08-.5-.47.03-.99.02-1.98,0-2.96,0-.37.11-.5.48-.48.78.03,1.56,0,2.34,0,0,0,0,0,0,0Z"/>
      <path class="cls-5" d="M42.84,4.29c0-.1,0-.21,0-.31,0-1.77.12-1.87,1.92-1.63.3.04.4.15.4.43,0,1.01.13,2.04-.04,3.02-.17.95-1.07.25-1.61.41-.3.09-.7.1-.67-.45.03-.49,0-.98,0-1.48Z"/>
    </g>
  </g>
</svg>