<?xml version="1.0" encoding="UTF-8"?>
<svg id="Layer_2" data-name="Layer 2" xmlns="http://www.w3.org/2000/svg" viewBox="0 0 52.86 39.64">
  <defs>
    <style>
      .cls-1 {
        fill: #666;
        stroke-width: 0px;
      }
    </style>
  </defs>
  <g id="Layer_2-2" data-name="Layer 2">
    <path class="cls-1" d="M23.91,30.92c-1.61,2.3-3.13,4.47-4.65,6.63-.09-.02-.17-.05-.26-.07.13-1.33.24-2.67.39-4,.24-2.17.43-4.35.78-6.51.12-.71.52-1.53,1.06-1.99,5.86-4.92,11.77-9.78,17.66-14.66.42-.35.84-.7,1.12-1.24-4.83,2.59-9.67,5.18-14.5,7.78-2.47,1.32-4.91,2.7-7.41,3.96-.87.44-1.1.96-1.07,1.88.07,2.3.02,4.61.02,7.12-1.02-2.44-2.07-4.7-2.91-7.04-.63-1.75-1.65-2.91-3.35-3.75-3.53-1.74-6.95-3.7-10.79-5.78C17.74,8.81,35.13,4.45,52.86,0c-6.05,13.36-11.98,26.43-17.96,39.64-3.69-2.93-7.29-5.79-10.99-8.73Z"/>
  </g>
</svg>