<?xml version="1.0" encoding="UTF-8"?>
<svg id="Layer_2" data-name="Layer 2" xmlns="http://www.w3.org/2000/svg" viewBox="0 0 80 80">
  <defs>
    <style>
      .cls-1 {
        fill: #ed9920;
      }

      .cls-1, .cls-2 {
        stroke-width: 0px;
      }

      .cls-2 {
        fill: #fea916;
      }
    </style>
  </defs>
  <g id="Layer_1-2" data-name="Layer 1">
    <g>
      <path class="cls-2" d="M68,5c3.86,0,7,3.14,7,7v56c0,3.86-3.14,7-7,7H12c-3.86,0-7-3.14-7-7V12c0-3.86,3.14-7,7-7h56M68,0H12C5.4,0,0,5.4,0,12v56c0,6.6,5.4,12,12,12h56c6.6,0,12-5.4,12-12V12c0-6.6-5.4-12-12-12h0Z"/>
      <g>
        <path class="cls-2" d="M40.02,39.75c1.81,0,3.61-.01,5.42,0,4.19.04,7.4,3.24,7.41,7.43.01,3.32,0,6.65.02,9.97,0,.55-.17.83-.67,1.07-4.6,2.12-9.43,2.88-14.45,2.53-3.45-.24-6.76-1.06-9.91-2.51-.53-.24-.71-.54-.71-1.12.03-3.3,0-6.6.02-9.89.01-4.23,3.21-7.44,7.45-7.47,1.81-.01,3.61,0,5.42,0Z"/>
        <path class="cls-1" d="M33.38,37.94c-4,.76-6.68,2.97-7.74,6.91-.28,1.04-.25,2.17-.28,3.27-.04,1.52-.03,3.04,0,4.56,0,.52-.13.73-.69.77-4.69.3-9.19-.42-13.4-2.59-.26-.13-.6-.44-.6-.67,0-3.19-.13-6.4.11-9.58.27-3.57,3.46-6.31,7.04-6.35,3.17-.03,6.34-.04,9.51,0,2.5.04,4.45,1.18,5.9,3.21.06.08.11.18.16.27.02.04,0,.1,0,.2Z"/>
        <path class="cls-1" d="M46.5,37.89c1.37-2.16,3.23-3.5,5.71-3.59,3.45-.13,6.92-.13,10.37-.01,3.73.12,6.71,3.4,6.77,7.26.04,2.8.02,5.6-.01,8.41,0,.28-.24.7-.48.83-4.27,2.24-8.84,2.98-13.61,2.66-.5-.03-.6-.25-.6-.69.02-1.78,0-3.56,0-5.34,0-4.92-3-8.5-7.87-9.39-.05,0-.1-.04-.29-.11Z"/>
        <path class="cls-2" d="M31.74,29.62c.07-4.66,3.81-8.31,8.43-8.22,4.5.09,8.13,3.83,8.08,8.34-.05,4.62-3.81,8.24-8.47,8.17-4.45-.07-8.11-3.84-8.04-8.28Z"/>
        <path class="cls-1" d="M14.79,24.65c-.02-4.3,3.44-7.81,7.74-7.83,4.31-.02,7.82,3.44,7.85,7.72.03,4.31-3.42,7.83-7.71,7.86-4.36.03-7.86-3.4-7.88-7.76Z"/>
        <path class="cls-1" d="M65.21,24.58c.02,4.31-3.42,7.8-7.73,7.83-4.31.03-7.83-3.43-7.86-7.71-.03-4.34,3.46-7.86,7.78-7.87,4.31,0,7.78,3.44,7.81,7.76Z"/>
      </g>
    </g>
  </g>
</svg>