<?xml version="1.0" encoding="UTF-8"?>
<svg id="Layer_2" data-name="Layer 2" xmlns="http://www.w3.org/2000/svg" viewBox="0 0 80.02 80">
  <defs>
    <style>
      .cls-1 {
        fill: #fed136;
      }

      .cls-1, .cls-2 {
        stroke-width: 0px;
      }

      .cls-2 {
        fill: #feb501;
      }
    </style>
  </defs>
  <g id="Layer_1-2" data-name="Layer 1">
    <g>
      <path class="cls-2" d="M80.02,40.61c-.63,1.35-1.69,1.76-3.15,1.74-4.37-.06-8.75-.02-13.13-.03-1.52,0-2.53-.98-2.51-2.38.02-1.35,1.03-2.3,2.52-2.3,3.44,0,6.88,0,10.31,0,.96,0,1.93.06,2.89-.01,1.44-.11,2.46.42,3.07,1.73v1.25Z"/>
      <path class="cls-2" d="M40,61.23c1.4.01,2.34.93,2.35,2.32,0,4.67,0,9.35,0,14.02,0,1.25-.7,1.93-1.73,2.42h-.63c0-6.26,0-12.51,0-18.77Z"/>
      <path class="cls-1" d="M40,61.23c0,6.26,0,12.51,0,18.77h-.63c-1.39-.64-1.76-1.75-1.74-3.22.06-4.34.02-8.68.03-13.02,0-1.56.86-2.47,2.34-2.53Z"/>
      <path class="cls-2" d="M40,22.78c3.6-.1,6.86.97,9.78,3,4.26,2.97,6.79,7.08,7.37,12.22,1.04,9.22-5.15,17.28-14.07,18.98-1.01.19-2.04.3-3.08.21,0-11.47,0-22.95,0-34.42Z"/>
      <path class="cls-1" d="M40,22.78c0,11.47,0,22.95,0,34.42-9.49.05-17.22-7.67-17.22-17.21,0-9.54,7.72-17.26,17.22-17.21Z"/>
      <path class="cls-2" d="M13.67,11.02c.36-.02.94.25,1.42.73,3.3,3.29,6.6,6.57,9.87,9.88.99,1,.97,2.43.04,3.36-.93.92-2.36.93-3.36-.06-3.31-3.28-6.6-6.58-9.88-9.88-.76-.76-.94-1.68-.52-2.66.38-.89,1.11-1.35,2.42-1.38Z"/>
      <path class="cls-2" d="M68.96,13.49c.02.56-.27,1.13-.74,1.61-3.27,3.28-6.54,6.56-9.83,9.82-1.03,1.02-2.49,1.01-3.41.05-.91-.94-.89-2.35.11-3.36,3.26-3.29,6.54-6.56,9.82-9.83.76-.75,1.66-.95,2.65-.57.89.35,1.41,1.18,1.41,2.28Z"/>
      <path class="cls-2" d="M13.58,68.94c-1.13,0-1.85-.41-2.28-1.25-.41-.8-.36-1.61.13-2.37.15-.24.36-.44.56-.65,3.14-3.15,6.29-6.29,9.43-9.44.56-.56,1.17-.96,1.98-.93.9.03,1.6.45,2.01,1.26.41.8.36,1.61-.13,2.37-.15.24-.36.45-.56.65-3.14,3.15-6.29,6.29-9.43,9.44-.53.53-1.11.95-1.72.92Z"/>
      <path class="cls-2" d="M68.97,66.45c-.01,1.12-.43,1.81-1.23,2.23-.77.41-1.56.38-2.31-.07-.24-.14-.46-.34-.66-.54-3.19-3.18-6.36-6.37-9.55-9.54-.54-.54-.92-1.14-.9-1.92.03-.9.43-1.61,1.24-2.03.8-.42,1.61-.38,2.37.11.2.12.37.28.54.45,3.22,3.22,6.44,6.44,9.66,9.66.52.52.87,1.1.83,1.66Z"/>
      <path class="cls-2" d="M9.45,37.64c2.24,0,4.48,0,6.71,0,1.59,0,2.62.94,2.62,2.36,0,1.41-1.04,2.33-2.64,2.33-4.5,0-9,0-13.51,0-1.58,0-2.64-.96-2.63-2.36,0-1.39,1.07-2.33,2.66-2.33,2.26,0,4.53,0,6.79,0Z"/>
      <path class="cls-1" d="M46.71,18.26c-.03-.38.08-.76.23-1.12.85-2.04,1.69-4.08,2.55-6.12.6-1.42,1.87-2.01,3.13-1.49,1.26.52,1.77,1.86,1.2,3.26-.84,2.07-1.7,4.13-2.57,6.19-.42,1-1.17,1.61-2.28,1.6-.93-.01-1.63-.48-2.05-1.32-.16-.31-.22-.64-.21-1Z"/>
      <path class="cls-1" d="M33.32,18.12c-.01,1.24-.66,2.08-1.72,2.38-.99.28-2.1-.11-2.58-1.1-.77-1.61-1.42-3.28-2.12-4.93-.28-.67-.58-1.34-.81-2.02-.39-1.19.19-2.42,1.32-2.89,1.15-.47,2.45-.04,2.96,1.12.99,2.26,1.9,4.55,2.83,6.83.1.23.09.51.11.61Z"/>
      <path class="cls-1" d="M33.31,61.71c0,.31-.02.62-.15.92-.9,2.18-1.79,4.37-2.72,6.54-.43.99-1.38,1.52-2.37,1.44-.97-.08-1.77-.78-2.05-1.76-.15-.53-.08-1.04.12-1.52.88-2.14,1.75-4.28,2.66-6.4.49-1.15,1.55-1.71,2.63-1.47,1.16.26,1.87,1.11,1.88,2.25Z"/>
      <path class="cls-1" d="M46.71,61.83c.01-1.24.68-2.07,1.81-2.35,1-.25,2.12.19,2.55,1.18,1.01,2.31,1.98,4.64,2.88,6.99.42,1.08-.23,2.29-1.3,2.77-1.02.45-2.35.11-2.86-.9-1.17-2.32-2.07-4.77-3.03-7.18-.07-.19-.05-.41-.06-.5Z"/>
      <path class="cls-1" d="M18.15,33.3c-.33.02-.7-.1-1.06-.25-2.02-.83-4.03-1.66-6.04-2.5-1.39-.59-1.98-1.9-1.45-3.16.52-1.23,1.84-1.74,3.2-1.2,2.1.84,4.18,1.7,6.26,2.59,1.13.48,1.73,1.57,1.51,2.62-.23,1.13-1.18,1.89-2.41,1.9Z"/>
      <path class="cls-1" d="M61.87,33.3c-1.27-.01-2.2-.79-2.43-1.92-.21-1.04.41-2.12,1.54-2.6,1.79-.76,3.6-1.49,5.4-2.23.43-.18.86-.37,1.31-.49,1.11-.3,2.24.26,2.7,1.3.46,1.04.13,2.29-.84,2.88-.57.35-1.22.58-1.84.84-1.58.66-3.17,1.31-4.75,1.97-.39.16-.78.3-1.1.27Z"/>
      <path class="cls-1" d="M20.6,49.15c-.07.88-.53,1.63-1.45,2.02-2.15.92-4.3,1.82-6.47,2.69-1.27.51-2.61-.09-3.1-1.3-.47-1.16.02-2.44,1.25-2.98,2.19-.95,4.39-1.88,6.62-2.73,1.58-.6,3.17.57,3.15,2.31Z"/>
      <path class="cls-1" d="M61.88,46.69c.1.01.35,0,.56.09,2.33.96,4.69,1.85,6.96,2.92,1.56.73,1.62,2.87.22,3.88-.62.45-1.33.63-2.06.33-2.28-.93-4.57-1.85-6.83-2.83-1.03-.45-1.48-1.55-1.22-2.6.27-1.1,1.13-1.79,2.38-1.79Z"/>
      <path class="cls-2" d="M40.02,0c1.35.02,2.33.95,2.33,2.28.01,4.74.01,9.47,0,14.21,0,1.33-.98,2.24-2.34,2.25,0-6.25,0-12.49.01-18.74Z"/>
      <path class="cls-1" d="M40.02,0c0,6.25,0,12.49-.01,18.74-1.38-.05-2.32-.94-2.33-2.3-.02-4.71-.02-9.42,0-14.13,0-1.35.95-2.23,2.34-2.31Z"/>
    </g>
  </g>
</svg>