<?xml version="1.0" encoding="UTF-8"?>
<svg id="Layer_2" data-name="Layer 2" xmlns="http://www.w3.org/2000/svg" viewBox="0 0 500 500">
  <defs>
    <style>
      .cls-1 {
        fill: none;
      }
    </style>
  </defs>
  <g id="Layer_1-2" data-name="Layer 1">
    <g>
      <rect class="cls-1" width="500" height="500"/>
      <g>
        <path d="M224.02,84.28c101.74-7.61,194.59,35.97,252.39,119.49,6.66,9.63,23.59,35.34,23.6,46.14,0,17.35-34.8,62.53-47.24,76.16-125.77,137.83-347.02,113.96-440.82-46.54-10.4-17.8-16.72-25.98-7.43-46.36C40.42,154.38,138.44,90.67,224.02,84.28ZM234.16,126.33c-77.97,7.96-126.78,90.47-102.25,163.77,33.82,101.07,174.12,114.01,226.08,20.98,50.38-90.2-21.94-195.15-123.83-184.75Z"/>
        <path d="M169.21,228.88c5.15.35,9.18,3.95,14.19,5.38,31.24,8.92,59.21-20.84,50.33-51.78-.69-2.4-6.31-11.62-5.07-13.04,35.81-9.72,74.73,6.19,93.07,38.18,23.83,41.58,9.04,94.43-33.79,116.09-64.94,32.84-135.73-25.58-118.73-94.82Z"/>
      </g>
    </g>
  </g>
</svg>