<?xml version="1.0" encoding="UTF-8"?>
<svg id="Layer_2" xmlns="http://www.w3.org/2000/svg" version="1.1" viewBox="0 0 499.9 500">
  <!-- Generator: Adobe Illustrator 29.0.1, SVG Export Plug-In . SVG Version: 2.1.0 Build 192)  -->
  <defs>
    <style>
      .st0 {
        fill: #ff6022;
      }
    </style>
  </defs>
  <g id="Layer_1-2">
    <g>
      <path class="st0" d="M343.3,185.4c5,43,4.8,86.6,0,129.6h-186.5c-4.9-43-5.2-86.6,0-129.6h186.5Z"/>
      <path class="st0" d="M162.2,154c-1.2-.9-1.3-1.1-1.3-2.5,0-3,1.6-11.2,2.3-14.8C170,98,198,5.5,244.7.3c54.8-6.1,82.7,92.2,90.9,132.9.9,4.6,3.5,14.4,3.5,18.3,0,1.4-.1,1.6-1.3,2.5h-175.6Z"/>
      <path class="st0" d="M339.6,346.5c-7,38.4-16.5,79.1-36.6,113-30.9,52.2-72.2,54.8-104.9,2.4-21.1-33.8-30.3-76.7-37.8-115.4h179.3Z"/>
      <path class="st0" d="M124,185.4c-3.2,43.2-3.2,86.4,0,129.6H9.5c-2.8-4.9-3.9-12.1-5.1-17.9-4.9-23.9-5.7-54.1-2.8-78.4,1.3-10.8,4.1-23.4,7.8-33.3h114.5Z"/>
      <path class="st0" d="M376,315c3.3-43.1,3.4-86.5,0-129.6h114.5c3.8,9.9,6.6,22.6,7.9,33.3,2.7,22.4,2,48.8-1.6,71.1-1.3,8.1-2.9,18-6.3,25.2h-114.5Z"/>
      <path class="st0" d="M480.1,154h-107.2c-4.6-9.4-4.9-21.3-7.2-31.5-6-26.7-14.1-52.9-25-77.9l-18.6-33.5c62.6,18.2,116.7,62.8,147.8,119.9,3.9,7.1,8.4,15.4,10.3,23h0Z"/>
      <path class="st0" d="M19.8,154c-1.2-1.2,9.8-22.4,11.5-25.5C62.5,72.4,116.1,29,177.9,11l-18.6,33.5c-15.2,33.8-24.4,69.9-30.5,106.4l-1.8,3H19.8Z"/>
      <path class="st0" d="M480.1,346.5c2.7,2.6-22.1,42.6-25.7,47.6-32.2,45.4-79.1,79-132.4,95.3l18.4-33.7c15.3-34.7,25.7-71.6,30.6-109.3h109,0Z"/>
      <path class="st0" d="M128.9,346.5c5.5,38.6,15.9,76.3,31.6,111.9l17.4,31c-70.3-21.3-130.9-74.4-158.1-142.9h109Z"/>
    </g>
  </g>
</svg>