<?xml version="1.0" encoding="UTF-8"?>
<svg id="Layer_2" data-name="Layer 2" xmlns="http://www.w3.org/2000/svg" viewBox="0 0 500 500">
  <defs>
    <style>
      .cls-1 {
        fill: none;
      }
    </style>
  </defs>
  <g id="Layer_1-2" data-name="Layer 1">
    <g>
      <rect class="cls-1" x="0" width="500" height="500"/>
      <g>
        <path d="M332.85,222.83c-46.65.11-125.2.89-147.03,51.33-6.61,15.27-6.76,34.57-5.54,51.1.95,12.83,12.16,46.22,9.5,54.59-4.48,14.09-19.36,8.36-27.72,1.41-52.22-43.43-73.89-120.32-46.99-183.66,34.05-80.16,142.55-86.62,217.78-86.67V43.36c0-1.15,4.02-8,5.22-9.31,8.32-9.07,22.08-9.06,30.98-.74l125.87,119.72c7.77,9.41,6.28,21.48-2.19,29.86l-125.13,117.56c-8.18,6.86-19.27,7.09-27.54.17-1.72-1.45-7.22-8.75-7.22-10.22v-67.58Z"/>
        <path d="M55.28,138.55v277.57h277.57v-63.22c0-.29,3.1-4.47,3.33-4.64,4.5-3.64,19.55-1.29,26.31-2.05,9.87-1.11,21.32-10.07,25.84,4.99,3.24,10.79,2.15,60.68,1.26,74.43-1.72,26.57-13.64,44.11-41.43,47.22H39.97c-21.09-1.82-37.32-15.8-39.97-37.05L.72,113.78c3.88-14.63,16.45-26.15,30.93-30.11l118.51-.03c6.68,1.55,8.72,9.36,5.47,15.03-2.01,3.49-26.73,17.81-32.73,22.48-6.72,5.23-12.94,11.36-18.93,17.4h-48.68Z"/>
      </g>
    </g>
  </g>
</svg>