<?xml version="1.0" encoding="UTF-8"?>
<svg id="Layer_2" data-name="Layer 2" xmlns="http://www.w3.org/2000/svg" viewBox="0 0 19.4 46.88">
  <defs>
    <style>
      .cls-1 {
        fill: #666;
        stroke-width: 0px;
      }
    </style>
  </defs>
  <g id="Layer_2-2" data-name="Layer 2">
    <path class="cls-1" d="M3.57,2.1c.92-.5,1.8-1.11,2.78-1.48,6.14-2.3,12.8,2.04,12.96,8.59.17,6.91.05,13.83.06,20.74,0,2.53-.06,5.06.01,7.59.07,2.34-.14,4.58-1.57,6.54-.42.42-.83.83-1.25,1.25-1.41.89-2.89,1.55-4.6,1.54-3.98-.02-7.29-3.04-7.41-7.04-.13-4.47-.05-8.95-.05-13.42,0-3.62-.04-7.24.01-10.86.06-4.14,4.21-6.61,7.74-4.61,1.71.97,2.62,2.52,2.63,4.5.02,5.89.01,11.78,0,17.67,0,.98-.58,1.6-1.4,1.58-.8-.03-1.29-.59-1.29-1.58,0-5.71,0-11.43,0-17.14,0-.85-.09-1.63-.74-2.27-.72-.71-1.56-.94-2.51-.64-.95.3-1.51.98-1.71,1.96-.04.2-.04.41-.04.62,0,7.95-.03,15.9.01,23.85.01,2.96,2.57,5.07,5.44,4.64,2.43-.36,4.02-2.28,4.03-4.92.02-3.5,0-7.01,0-10.51,0-6.3.02-12.6,0-18.91-.02-3.7-2.49-6.55-6.03-7.04-3.86-.54-7.46,2.24-7.86,6.12-.1.99-.07,2-.07,3,0,6.92,0,13.84,0,20.76,0,.32.01.65-.04.97-.12.71-.59,1.08-1.29,1.08-.71,0-1.18-.41-1.3-1.09-.09-.54-.06-1.11-.06-1.67C.01,24.71.04,17.5,0,10.29c-.01-2.47.71-4.67,2.07-6.68.5-.5,1-1,1.5-1.5Z"/>
  </g>
</svg>