<?xml version="1.0" encoding="UTF-8"?>
<svg id="Layer_2" data-name="Layer 2" xmlns="http://www.w3.org/2000/svg" viewBox="0 0 82.79 80">
  <defs>
    <style>
      .cls-1 {
        fill: #fcfcfa;
      }

      .cls-1, .cls-2, .cls-3, .cls-4 {
        stroke-width: 0px;
      }

      .cls-2 {
        fill: #fee000;
      }

      .cls-3 {
        fill: #040302;
      }

      .cls-4 {
        fill: #fca600;
      }
    </style>
  </defs>
  <g id="Layer_1-2" data-name="Layer 1">
    <g>
      <path class="cls-3" d="M82.79,31.43c-6.46,6.4-12.91,12.79-19.38,19.18-.37.37-.52.69-.42,1.25,1.49,8.67,2.95,17.35,4.41,26.02.11.67.2,1.37-.46,1.84-.68.49-1.31.22-1.96-.13-7.63-4.08-15.27-8.15-22.89-12.24-.5-.27-.87-.29-1.39-.02-7.58,4.07-15.17,8.11-22.75,12.16-.17.09-.33.18-.5.27-.54.28-1.08.34-1.6-.03-.5-.35-.62-.86-.53-1.43.3-1.83.6-3.66.91-5.49,1.2-7.08,2.4-14.17,3.61-21.25.08-.48-.21-.68-.47-.94-6.11-6.05-12.22-12.09-18.33-18.14-.21-.21-.43-.41-.63-.63-.82-.95-.4-2.17.85-2.36,3.33-.51,6.66-.98,9.98-1.47,5.49-.81,10.97-1.63,16.46-2.41.51-.07.57-.44.72-.75,2.77-5.68,5.52-11.36,8.28-17.03,1.08-2.22,2.16-4.44,3.24-6.67.29-.61.64-1.14,1.41-1.15.81-.02,1.17.52,1.48,1.16,3.82,7.88,7.66,15.75,11.47,23.64.26.54.55.78,1.17.87,8.34,1.2,16.67,2.44,25,3.67.89.13,1.82.15,2.31,1.12v.97ZM7.5,31.41c-1.03.04-2.04.25-3.11.53.21.29.49.47.71.69,5.6,5.53,11.19,11.07,16.79,16.6.65.64.91,1.3.75,2.23-.97,5.59-1.9,11.19-2.85,16.79-.43,2.53-.86,5.06-1.31,7.72,1.03-.35,1.9-.9,2.79-1.41.24-.12.49-.22.72-.35,6.09-3.25,12.18-6.49,18.25-9.77.8-.43,1.47-.44,2.26,0,2.23,1.24,4.49,2.43,6.74,3.62,4.01,2.13,8.02,4.25,12.02,6.37.8.44,1.6.87,2.39,1.32.46.26.58.08.51-.37-.13-.77-.26-1.54-.39-2.31-1.21-7.18-2.42-14.37-3.66-21.54-.17-.99.09-1.68.79-2.37,5.6-5.51,11.19-11.05,16.77-16.58.22-.21.52-.37.6-.81-1-.13-1.97-.25-2.94-.37-.18-.05-.36-.11-.55-.14-6.89-1.02-13.79-2.05-20.69-3.04-.94-.13-1.48-.55-1.88-1.39-3.45-7.14-6.92-14.27-10.39-21.4-.13-.27-.19-.6-.52-.8-.15.29-.29.55-.42.81-3.48,7.16-6.96,14.31-10.43,21.47-.31.64-.67,1.14-1.44,1.25-5.17.75-10.33,1.51-15.5,2.27-2.02.3-4.04.63-6.05.95Z"/>
      <path class="cls-2" d="M61.29,74.45c-4.01-2.12-8.02-4.24-12.02-6.37-2.25-1.2-4.51-2.38-6.74-3.62-.79-.44-1.47-.43-2.26,0-6.07,3.27-12.17,6.52-18.25,9.77-.24.13-.48.23-.72.35.04-.29.06-.59.11-.88,1.34-7.92,2.67-15.85,4.03-23.77.09-.5-.04-.79-.37-1.12-2.12-2.07-4.22-4.15-6.32-6.24-3.74-3.72-7.48-7.44-11.23-11.16,2.02-.32,4.03-.65,6.05-.95,5.16-.77,10.33-1.52,15.5-2.27.77-.11,1.13-.62,1.44-1.25,3.47-7.16,6.95-14.32,10.43-21.47.13-.26.27-.52.42-.81.33.2.39.53.52.8,3.47,7.13,6.94,14.26,10.39,21.4.4.83.94,1.25,1.88,1.39,6.9.98,13.79,2.02,20.69,3.04.18.03.36.09.55.14-.21.24-.41.49-.64.72-5.52,5.51-11,11.08-16.65,16.46-.71.68-.77,1.32-.61,2.18.66,3.66,1.27,7.32,1.89,10.99.57,3.37,1.17,6.74,1.69,10.12.13.84.54,1.68.25,2.57Z"/>
      <path class="cls-1" d="M7.5,31.41c3.74,3.72,7.48,7.44,11.23,11.16,2.1,2.09,4.2,4.17,6.32,6.24.34.33.46.62.37,1.12-1.36,7.92-2.69,15.84-4.03,23.77-.05.29-.07.59-.11.88-.89.51-1.76,1.06-2.79,1.41.45-2.66.88-5.19,1.31-7.72.95-5.6,1.87-11.2,2.85-16.79.16-.93-.1-1.59-.75-2.23-5.61-5.52-11.19-11.06-16.79-16.6-.23-.23-.51-.4-.71-.69,1.07-.29,2.07-.49,3.11-.53Z"/>
      <path class="cls-4" d="M61.29,74.45c.28-.89-.12-1.72-.25-2.57-.53-3.38-1.12-6.75-1.69-10.12-.62-3.66-1.23-7.33-1.89-10.99-.15-.86-.1-1.5.61-2.18,5.65-5.38,11.13-10.94,16.65-16.46.23-.23.43-.48.64-.72.97.12,1.95.25,2.94.37-.08.44-.39.6-.6.81-5.58,5.53-11.16,11.07-16.77,16.58-.7.69-.97,1.38-.79,2.37,1.24,7.18,2.44,14.36,3.66,21.54.13.77.26,1.54.39,2.31.07.45-.05.63-.51.37-.79-.45-1.59-.88-2.39-1.32Z"/>
    </g>
  </g>
</svg>